<svg xmlns="http://www.w3.org/2000/svg" version="1.1" xmlns:xlink="http://www.w3.org/1999/xlink" xmlns:svgjs="http://svgjs.dev/svgjs" width="2000" height="1247" viewBox="0 0 2000 1247"><g transform="matrix(1,0,0,1,-1.2121212121212466,0.504858299595071)"><svg viewBox="0 0 396 247" data-background-color="#282634" preserveAspectRatio="xMidYMid meet" height="1247" width="2000" xmlns="http://www.w3.org/2000/svg" xmlns:xlink="http://www.w3.org/1999/xlink"><g id="tight-bounds" transform="matrix(1,0,0,1,0.2400000000000091,-0.09999999999999432)"><svg viewBox="0 0 395.52 247.2" height="247.2" width="395.52"><g><svg></svg></g><g><svg viewBox="0 0 395.52 247.2" height="247.2" width="395.52"><g transform="matrix(1,0,0,1,75.54432,66.566016)"><svg viewBox="0 0 244.43135999999998 114.06796799999998" height="114.06796799999998" width="244.43135999999998"><g><svg viewBox="0 0 244.43136 114.067968" height="114.06796799999998" width="244.43135999999998"><g><svg viewBox="0 0 244.43136 114.067968" height="114.067968" width="244.43136"><g id="textblocktransform"><svg viewBox="0 0 244.43136 114.067968" height="114.067968" width="244.43136" id="textblock"><g><svg viewBox="0 0 244.43136 114.067968" height="114.067968" width="244.43136"><g transform="matrix(1,0,0,1,0,0)"><svg width="244.43136" viewBox="0 -50 93.75 43.75" height="114.067968" data-palette-color="#ff4057"><path d="M37.5-6.25L6.25-6.25 6.25-12.5 0-12.5 0-18.75 12.5-18.75 12.5-12.5 31.25-12.5 31.25-50 43.75-50 43.75-12.5 37.5-12.5 37.5-6.25ZM62.5-6.25L50-6.25 50-50 62.5-50 62.5-43.75 68.75-43.75 68.75-37.5 75-37.5 75-43.75 81.25-43.75 81.25-50 93.75-50 93.75-6.25 81.25-6.25 81.25-31.25 75-31.25 75-18.75 68.75-18.75 68.75-31.25 62.5-31.25 62.5-6.25Z" opacity="1" transform="matrix(1,0,0,1,0,0)" fill="#ffffff" class="undefined-text-0" data-fill-palette-color="primary" id="text-0"></path></svg></g></svg></g></svg></g></svg></g></svg></g></svg></g><path d="M160.071 60.566L160.071 11.595 384.081 11.595 384.081 235.605 160.071 235.605 160.071 186.634 170.358 186.634 170.358 225.318 373.794 225.318 373.794 21.882 170.358 21.882 170.358 60.566Z" fill="#ffffff" stroke="transparent" data-fill-palette-color="primary"></path></svg></g><defs></defs></svg><rect width="395.52" height="247.2" fill="none" stroke="none" visibility="hidden"></rect></g></svg></g></svg>